<svg id="OBJECTS_copy" data-name="OBJECTS copy" xmlns="http://www.w3.org/2000/svg" xmlns:xlink="http://www.w3.org/1999/xlink" viewBox="0 0 500 500"><defs><style>.cls-1{fill:url(#Degradado_sin_nombre_7);}.cls-2{fill:#fff;}</style><linearGradient id="Degradado_sin_nombre_7" x1="94.49" y1="266.82" x2="448.94" y2="266.82" gradientUnits="userSpaceOnUse"><stop offset="0" stop-color="red"/><stop offset="1" stop-color="#9b0000"/></linearGradient></defs><g id="Youtube"><path class="cls-1" d="M232.58,397.13s24.28-55.63,154.09-63,49-270.56-171.46-221.83C-9.84,162.08,129.85,534.33,232.58,397.13Z"/><path class="cls-2" d="M308.57,209.66a17.54,17.54,0,0,0-12.33-12.41c-10.87-2.93-54.47-2.93-54.47-2.93s-43.59,0-54.47,2.93A17.53,17.53,0,0,0,175,209.66c-2.92,10.94-2.92,33.77-2.92,33.77s0,22.84,2.92,33.78a17.52,17.52,0,0,0,12.32,12.4c10.88,2.94,54.47,2.94,54.47,2.94s43.6,0,54.47-2.94a17.53,17.53,0,0,0,12.33-12.4c2.91-10.94,2.91-33.78,2.91-33.78S311.48,220.6,308.57,209.66Zm-81.06,54.5V222.7L264,243.43Z"/></g></svg>