<svg id="OBJECTS_copy" data-name="OBJECTS copy" xmlns="http://www.w3.org/2000/svg" xmlns:xlink="http://www.w3.org/1999/xlink" viewBox="0 0 500 500"><defs><style>.cls-1{fill:url(#Degradado_sin_nombre_6);}</style><linearGradient id="Degradado_sin_nombre_6" x1="76.28" y1="269.87" x2="432.28" y2="269.87" gradientUnits="userSpaceOnUse"><stop offset="0" stop-color="#fffa00"/><stop offset="1" stop-color="#ffbb36"/></linearGradient></defs><g id="imdb"><path class="cls-1" d="M329.63,139.26s-40.73,45-166.12,10.59S30.83,390.7,255.37,414.75C484.53,439.3,470.73,41.94,329.63,139.26Z"/><path d="M154.74,315.71H131.61V227.63h23.13Z"/><path d="M185.38,315.71H164.44V227.63h31.88L206,279.39l9.71-51.76h32v88.08H226.73V253.3l-12,62.41H197.27L185.38,253.3Z"/><path d="M289.85,315.71H257.37V227.63h35q7.74,0,12.89,3.16t8.64,10q3.07,6.15,3.67,21.35.12,4.5.12,13.79-.48,14-2.81,22t-7.22,12q-4.87,4-13.46,5.35A26.93,26.93,0,0,1,289.85,315.71Zm-9.35-16.63,4.14-.11q8.58-.18,9.29-8.7l.29-3.49.12-1.95q.24-9.22.24-13,0-6.8-.36-14.79l-.17-1.83-.24-2.66q-.71-8.22-8.7-8.22H280.5Z"/><path d="M345.68,315.71h-21V227.63h21.82v28.21a16.58,16.58,0,0,1,6.33-6.21,17.94,17.94,0,0,1,9.06-2.36,16.66,16.66,0,0,1,10.41,3.46q4.2,3.35,6.35,11.12t2.16,20.43c0,2.41,0,4.26-.11,5.56a61.22,61.22,0,0,1-2,14.68,21.62,21.62,0,0,1-4.73,8.69,18.35,18.35,0,0,1-13.9,6.21,16.39,16.39,0,0,1-7.48-1.74,14.91,14.91,0,0,1-5.71-5.06,7.65,7.65,0,0,1-.62-1.27c-.3-.69-.51-1-.63-1Zm.48-33.43v1.66l.24,6.21a19.74,19.74,0,0,0,1.15,6.84,6.14,6.14,0,0,0,2.63,3.1,7.74,7.74,0,0,0,2.55.59q5.43,0,5.79-15.14v-4.38l-.23-7.16c0-3.55-.58-6.08-1.6-7.6a5.13,5.13,0,0,0-4.56-2.27,4.78,4.78,0,0,0-3.52,1.92q-1.16,1.62-1.86,5.94a68.81,68.81,0,0,0-.47,7.75c0,.56,0,1,0,1.36S346.2,281.85,346.16,282.28Z"/></g></svg>