<svg xmlns="http://www.w3.org/2000/svg" viewBox="0 0 35 35"><defs><style>.cls-1{fill:none;stroke:#000;stroke-miterlimit:10;stroke-width:1.13px;}</style></defs><g id="Youtube"><rect class="cls-1" x="2.88" y="2.88" width="29.24" height="29.24" rx="7.65" transform="translate(35 0) rotate(90)"/><path class="cls-1" d="M27.85,14.71a4.61,4.61,0,0,0-4.62-4.61H11.42A4.61,4.61,0,0,0,6.8,14.71v5.5a4.62,4.62,0,0,0,4.62,4.62H23.23a4.62,4.62,0,0,0,4.62-4.62Zm-6.94,3.16-5.3,2.63c-.21.11-.91,0-.91-.28V14.84c0-.24.71-.39.92-.27l5.07,2.76C20.9,17.45,21.12,17.76,20.91,17.87Z"/></g></svg>