<svg id="OBJECTS_copy" data-name="OBJECTS copy" xmlns="http://www.w3.org/2000/svg" xmlns:xlink="http://www.w3.org/1999/xlink" viewBox="0 0 500 500"><defs><style>.cls-1{fill:url(#Degradado_sin_nombre_3);}.cls-2{fill:#fff;}</style><linearGradient id="Degradado_sin_nombre_3" x1="80.45" y1="272.65" x2="439.96" y2="272.65" gradientTransform="translate(-96.89 174.85) rotate(-31.95)" gradientUnits="userSpaceOnUse"><stop offset="0" stop-color="#ffe185"/><stop offset="0.21" stop-color="#ffbb36"/><stop offset="0.38" stop-color="#ff5176"/><stop offset="0.52" stop-color="#f63395"/><stop offset="0.74" stop-color="#a436d2"/><stop offset="1" stop-color="#5f4eed"/></linearGradient></defs><g id="insta"><path class="cls-1" d="M126.23,171.93c-23.47,23.73-69.55,83.54-44.44,136.51C117.87,384.58,258.16,326.2,279.18,379s82.19,53.32,122.89-32,31.25-155.53-9.49-218.72S197.58,99.76,126.23,171.93Z"/><path class="cls-2" d="M275.93,180.49c20.82,0,23.28.08,31.5.46,7.6.35,11.73,1.62,14.48,2.69a25.79,25.79,0,0,1,14.8,14.79c1.07,2.75,2.33,6.88,2.68,14.48.38,8.22.46,10.69.46,31.51s-.08,23.28-.46,31.5c-.35,7.61-1.61,11.73-2.68,14.48a25.85,25.85,0,0,1-14.8,14.8c-2.75,1.07-6.88,2.34-14.48,2.68-8.22.38-10.68.46-31.5.46s-23.29-.08-31.51-.46c-7.6-.34-11.73-1.61-14.48-2.68a25.92,25.92,0,0,1-14.8-14.8c-1.06-2.75-2.33-6.87-2.68-14.48-.37-8.22-.45-10.68-.45-31.5s.08-23.29.45-31.51c.35-7.6,1.62-11.73,2.68-14.48a25.87,25.87,0,0,1,14.8-14.79c2.75-1.07,6.88-2.34,14.48-2.69,8.22-.38,10.69-.46,31.51-.46m0-14c-21.18,0-23.83.09-32.15.47s-14,1.69-18.93,3.62a39.84,39.84,0,0,0-22.8,22.8c-1.93,5-3.25,10.63-3.62,18.93s-.47,11-.47,32.15.09,23.83.47,32.14,1.69,14,3.62,18.93a39.84,39.84,0,0,0,22.8,22.8c5,1.93,10.63,3.25,18.93,3.63s11,.46,32.15.46,23.83-.08,32.14-.46,14-1.7,18.93-3.63a39.84,39.84,0,0,0,22.8-22.8c1.93-5,3.25-10.63,3.63-18.93s.46-11,.46-32.14-.08-23.83-.46-32.15-1.7-14-3.63-18.93a39.84,39.84,0,0,0-22.8-22.8c-5-1.93-10.63-3.24-18.93-3.62s-11-.47-32.14-.47"/><path class="cls-2" d="M275.93,204.38a40,40,0,1,0,40,40,40,40,0,0,0-40-40m0,66a26,26,0,1,1,26-26,26,26,0,0,1-26,26"/><path class="cls-2" d="M326.9,202.8a9.36,9.36,0,1,1-9.35-9.36,9.35,9.35,0,0,1,9.35,9.36"/></g></svg>