<svg xmlns="http://www.w3.org/2000/svg" viewBox="0 0 35 35"><defs><style>.cls-1{fill:none;stroke:#000;stroke-miterlimit:10;stroke-width:1.13px;}</style></defs><g id="X"><rect class="cls-1" x="2.88" y="2.88" width="29.24" height="29.24" rx="7.65" transform="translate(35 0) rotate(90)"/><path class="cls-1" d="M27.85,11.06a8.69,8.69,0,0,1-2.08.59c.34-.06.83-.66,1-.9a3.88,3.88,0,0,0,.69-1.26s0-.08,0-.11a.1.1,0,0,0-.11,0,10.49,10.49,0,0,1-2.46.94.16.16,0,0,1-.17,0,2.28,2.28,0,0,0-.22-.22,4.28,4.28,0,0,0-1.19-.73A4.11,4.11,0,0,0,21.5,9a4.42,4.42,0,0,0-3.13,1.64,4.19,4.19,0,0,0-.84,1.67,4.58,4.58,0,0,0,0,1.77c0,.09,0,.11-.09.09A13.11,13.11,0,0,1,9,9.91c-.1-.11-.16-.11-.24,0A4.31,4.31,0,0,0,9.44,15c.17.15.34.31.52.45A4.17,4.17,0,0,1,8.33,15c-.1-.07-.15,0-.15.08a2.75,2.75,0,0,0,0,.49A4.32,4.32,0,0,0,10.87,19a2.69,2.69,0,0,0,.55.17,5,5,0,0,1-1.6.05c-.12,0-.16,0-.12.14a4.5,4.5,0,0,0,3.36,2.82c.15,0,.31,0,.46.06l0,0c-.37.58-1.68,1-2.29,1.22a8.28,8.28,0,0,1-3.49.44c-.19,0-.23,0-.28,0s0,.08.06.13c.23.16.48.29.72.43a11.68,11.68,0,0,0,2.33.93A12.41,12.41,0,0,0,22.6,22.61c2.47-2.45,3.33-5.84,3.33-9.23,0-.13.16-.2.25-.27a7.83,7.83,0,0,0,1.64-1.71.49.49,0,0,0,.11-.32v0C27.93,11,27.93,11,27.85,11.06Z"/></g></svg>