<svg xmlns="http://www.w3.org/2000/svg" viewBox="0 0 35 35"><defs><style>.cls-1,.cls-2{fill:none;stroke:#000;stroke-miterlimit:10;stroke-width:1.13px;}.cls-2{fill-rule:evenodd;}</style></defs><g id="whatsapp"><rect class="cls-1" x="2.88" y="2.88" width="29.24" height="29.24" rx="7.65" transform="translate(35 0) rotate(90)"/><path class="cls-1" d="M7.63,27.75l1.5-5.61a10.35,10.35,0,1,1,4.13,4.1Z"/><path class="cls-2" d="M22,18.58a1.73,1.73,0,0,0-1.48-.33c-.38.16-.63.76-.88,1.07a.37.37,0,0,1-.48.1,6.71,6.71,0,0,1-3.35-2.87A.41.41,0,0,1,15.9,16a2.21,2.21,0,0,0,.6-1,2.11,2.11,0,0,0-.27-1.17,2.84,2.84,0,0,0-.86-1.3,1.21,1.21,0,0,0-1.29.19,2.62,2.62,0,0,0-.9,2.07,2.82,2.82,0,0,0,.08.65,5.36,5.36,0,0,0,.63,1.45,9.6,9.6,0,0,0,.66,1,10.1,10.1,0,0,0,2.84,2.65,8.51,8.51,0,0,0,1.78.84,4,4,0,0,0,2.07.33,2.49,2.49,0,0,0,1.87-1.4,1.16,1.16,0,0,0,.09-.71C23.09,19.11,22.43,18.82,22,18.58Z"/></g></svg>