<svg id="OBJECTS_copy" data-name="OBJECTS copy" xmlns="http://www.w3.org/2000/svg" xmlns:xlink="http://www.w3.org/1999/xlink" viewBox="0 0 500 500"><defs><style>.cls-1{fill:url(#Degradado_sin_nombre_10);}.cls-2{fill:#fff;}</style><linearGradient id="Degradado_sin_nombre_10" x1="86.73" y1="260.47" x2="430.76" y2="260.47" gradientTransform="translate(116.66 -77.97) rotate(22.66)" gradientUnits="userSpaceOnUse"><stop offset="0" stop-color="#007bb8"/><stop offset="1" stop-color="#0044e9"/></linearGradient></defs><g id="Linkedin"><path class="cls-1" d="M235.38,385.57s20.11-57.26,149-74.16S413.33,38,197,102.84C-23.73,169.05,143.05,530,235.38,385.57Z"/><rect class="cls-2" x="168.62" y="198.49" width="31" height="100.16"/><path class="cls-2" d="M184,185.38a18.49,18.49,0,1,0-18.34-18.49A18.42,18.42,0,0,0,184,185.38Z"/><path class="cls-2" d="M249.19,246.07c0-14.08,6.48-22.47,18.89-22.47,11.4,0,16.87,8.05,16.87,22.47v52.58h30.86V235.23c0-26.83-15.2-39.8-36.44-39.8A34.92,34.92,0,0,0,249.19,212V198.49H219.45V298.65h29.74Z"/></g></svg>