<svg xmlns="http://www.w3.org/2000/svg" viewBox="0 0 35 35"><defs><style>.cls-1{fill:none;stroke:#000;stroke-miterlimit:10;stroke-width:1.13px;}</style></defs><g id="Behance"><rect class="cls-1" x="2.88" y="2.88" width="29.24" height="29.24" rx="7.65" transform="translate(35 0) rotate(90)"/><path class="cls-1" d="M18.34,21.06A3.44,3.44,0,0,1,18,22.67a3.35,3.35,0,0,1-1,1.15,4.69,4.69,0,0,1-1.49.72,6.51,6.51,0,0,1-1.79.24h-7V10.37h7.71a2.93,2.93,0,0,1,1.36.32,3.4,3.4,0,0,1,1,.85,3.55,3.55,0,0,1,.66,1.17A3.9,3.9,0,0,1,17.2,16a3.22,3.22,0,0,1-1.54,1.37,3.74,3.74,0,0,1,1.95,1.31A3.79,3.79,0,0,1,18.34,21.06Zm-8.81-8.3V16.4h3.73a1.68,1.68,0,0,0,1.21-.49,1.79,1.79,0,0,0,.5-1.34,1.89,1.89,0,0,0-.46-1.32,1.5,1.5,0,0,0-1.13-.49Zm6,7.78a2,2,0,0,0-.13-.74,2,2,0,0,0-.35-.62,1.64,1.64,0,0,0-.53-.42,1.5,1.5,0,0,0-.67-.15H9.53V22.4h4.16a1.8,1.8,0,0,0,1.3-.53,1.86,1.86,0,0,0,.38-.6A1.83,1.83,0,0,0,15.51,20.54Z"/><path class="cls-1" d="M24.4,24.78a5.77,5.77,0,0,1-2.24-.42,5.09,5.09,0,0,1-2.8-2.85,5.3,5.3,0,0,1-.39-2,5.77,5.77,0,0,1,.38-2.08,5.08,5.08,0,0,1,2.8-2.88,5.89,5.89,0,0,1,2.27-.43,5.71,5.71,0,0,1,2.25.43,5.34,5.34,0,0,1,3.11,5.35,2.07,2.07,0,0,1-.05.4h-8a3.07,3.07,0,0,0,.29,1.08,2.7,2.7,0,0,0,.61.8,2.38,2.38,0,0,0,.85.51,2.7,2.7,0,0,0,1,.18A3.08,3.08,0,0,0,26,22.47a2,2,0,0,0,1-1l2.26.62A4.57,4.57,0,0,1,27.38,24,5.57,5.57,0,0,1,24.4,24.78Zm2.68-6.21a2.72,2.72,0,0,0-.86-1.86,2.59,2.59,0,0,0-1.84-.7,2.53,2.53,0,0,0-1,.19,2.43,2.43,0,0,0-.82.52,2.79,2.79,0,0,0-.58.8,2.75,2.75,0,0,0-.26,1h5.35Z"/><path class="cls-1" d="M20.93,11.05h6.9v1.71h-6.9Z"/></g></svg>