<svg xmlns="http://www.w3.org/2000/svg" viewBox="0 0 35 35"><defs><style>.cls-1{fill:none;stroke:#000;stroke-miterlimit:10;stroke-width:1.13px;}</style></defs><g id="Instagram"><rect class="cls-1" x="2.88" y="2.88" width="29.24" height="29.24" rx="7.65" transform="translate(35 0) rotate(90)"/><path class="cls-1" d="M23,10.87a1.21,1.21,0,1,0,1.21,1.21A1.21,1.21,0,0,0,23,10.87Z"/><path class="cls-1" d="M17.58,20.75a3.25,3.25,0,1,1,3.26-3.25A3.26,3.26,0,0,1,17.58,20.75Z"/><path class="cls-1" d="M21.62,27.81H13.38a6.2,6.2,0,0,1-6.19-6.19V13.38a6.2,6.2,0,0,1,6.19-6.19h8.24a6.2,6.2,0,0,1,6.19,6.19v8.24A6.2,6.2,0,0,1,21.62,27.81Z"/></g></svg>