<svg id="OBJECTS_copy" data-name="OBJECTS copy" xmlns="http://www.w3.org/2000/svg" viewBox="0 0 500 500"><defs><style>.cls-1{fill:#fff;}</style></defs><g id="x"><path d="M211.59,397.29S52.88,365.83,78,214.14s103.9-173,169-113.48,154.15,15.73,179.27,85.39S380.59,418.64,211.59,397.29Z"/><path class="cls-1" d="M307.67,304.72l-46.18-67.09-5.22-7.58-33-48-2.74-4H179.91l9.9,14.38,43.92,63.82,5.22,7.58,35.29,51.27,2.74,4h40.59Zm-25.87,5.21-36.66-53.27-5.22-7.59-42.55-61.81h18.3l34.41,50,5.22,7.58,44.8,65.1Z"/><polygon class="cls-1" points="239.92 249.07 245.14 256.66 238.95 263.86 191.46 319.11 179.75 319.11 233.73 256.28 239.92 249.07"/><polygon class="cls-1" points="312.68 178.08 261.49 237.63 255.3 244.83 250.08 237.25 256.27 230.05 290.95 189.68 300.97 178.08 312.68 178.08"/></g></svg>