<svg id="OBJECTS_copy" data-name="OBJECTS copy" xmlns="http://www.w3.org/2000/svg" xmlns:xlink="http://www.w3.org/1999/xlink" viewBox="0 0 500 500"><defs><style>.cls-1{fill:url(#Degradado_sin_nombre_8);}.cls-2{fill:#fff;fill-rule:evenodd;}</style><linearGradient id="Degradado_sin_nombre_8" x1="90.29" y1="244.98" x2="446.17" y2="244.98" gradientUnits="userSpaceOnUse"><stop offset="0" stop-color="#00fb73"/><stop offset="1" stop-color="#00b25b"/></linearGradient></defs><g id="whtasapp"><path class="cls-1" d="M226.58,407.71S67.86,376.25,93,224.57s103.91-173,169-113.48,154.14,15.73,179.27,85.39S395.57,429.06,226.58,407.71Z"/><path class="cls-2" d="M354.91,256.41c-1.23-48.47-41.15-87.38-90.3-87.38-48.55,0-88.14,38-90.25,85.73,0,1.31-.08,2.62-.08,3.93A89,89,0,0,0,187.22,305l-16.29,48.08,50-15.9a90.49,90.49,0,0,0,43.64,11.17c49.91,0,90.34-40.14,90.34-89.67C355,257.93,355,257.17,354.91,256.41Zm-90.3,77.65a75.64,75.64,0,0,1-41.78-12.48l-29.18,9.31,9.47-28a74.56,74.56,0,0,1-14.47-44.2,71,71,0,0,1,.38-7.31c3.73-38.15,36.21-68,75.58-68,39.89,0,72.66,30.66,75.71,69.48.17,1.95.25,3.9.25,5.88C340.57,300.27,306.48,334.06,264.61,334.06Z"/><path class="cls-2" d="M306,276.79c-2.24-1.09-13.11-6.42-15.14-7.14s-3.51-1.1-5,1.1-5.75,7.15-7,8.58-2.57,1.65-4.82.55-9.34-3.38-17.8-10.91a65.5,65.5,0,0,1-12.31-15.18c-1.27-2.2-.13-3.39,1-4.49s2.2-2.58,3.34-3.84l.81-1.06a23.23,23.23,0,0,0,1.39-2.62,4,4,0,0,0-.16-3.85c-.55-1.1-5-11.93-6.86-16.33s-3.67-3.64-5-3.64-2.75-.21-4.23-.21a8.19,8.19,0,0,0-5.92,2.75c-2,2.2-7.74,7.53-7.74,18.36a27.86,27.86,0,0,0,1.15,7.49,50.09,50.09,0,0,0,7.9,15.22c1.1,1.44,15.31,24.36,37.81,33.2s22.54,5.84,26.61,5.46,13.11-5.29,14.92-10.45,1.87-9.52,1.32-10.45S308.21,277.9,306,276.79Z"/></g></svg>