<svg id="Linkedin" xmlns="http://www.w3.org/2000/svg" viewBox="0 0 35 35"><defs><style>.cls-1{fill:none;stroke:#000;stroke-miterlimit:10;stroke-width:1.13px;}</style></defs><rect class="cls-1" x="2.88" y="2.88" width="29.24" height="29.24" rx="7.65" transform="translate(35 0) rotate(90)"/><path class="cls-1" d="M8.52,13.79h4.05v13H8.52Zm2-6.48A2.35,2.35,0,1,1,8.19,9.66a2.35,2.35,0,0,1,2.35-2.35"/><path class="cls-1" d="M15.11,13.79H19v1.78h.05a4.24,4.24,0,0,1,3.84-2.1c4.1,0,4.85,2.69,4.85,6.2v7.15h-4V20.48c0-1.51,0-3.45-2.1-3.45s-2.43,1.64-2.43,3.34v6.45H15.11Z"/></svg>