<svg id="OBJECTS_copy" data-name="OBJECTS copy" xmlns="http://www.w3.org/2000/svg" xmlns:xlink="http://www.w3.org/1999/xlink" viewBox="0 0 500 500"><defs><style>.cls-1{fill:url(#Degradado_sin_nombre_18);}.cls-2{fill:#fff;}</style><linearGradient id="Degradado_sin_nombre_18" x1="64.6" y1="253.89" x2="419.37" y2="253.89" gradientUnits="userSpaceOnUse"><stop offset="0" stop-color="#5865f2"/><stop offset="0.71" stop-color="#651ee2"/><stop offset="1" stop-color="#6a00db"/></linearGradient></defs><g id="mail"><path class="cls-1" d="M290,123.21S261.88,177,131.87,175.1,63.8,441.51,287.19,408.52C515.2,374.84,402.23-6.37,290,123.21Z"/><path class="cls-2" d="M323.09,208.33h-133a20.33,20.33,0,0,0-20.31,20.31v99.52a20.33,20.33,0,0,0,20.31,20.31h133a20.33,20.33,0,0,0,20.31-20.31V228.64A20.33,20.33,0,0,0,323.09,208.33Zm-13.5,19.84-52.91,38-51.33-38Zm13.5,100.45h-133a.45.45,0,0,1-.46-.46V241.23l66.87,49.44,67.06-48.1v85.59A.46.46,0,0,1,323.09,328.62Z"/></g></svg>