<svg xmlns="http://www.w3.org/2000/svg" viewBox="0 0 35 35"><defs><style>.cls-1{fill:none;stroke:#000;stroke-miterlimit:10;stroke-width:1.13px;}</style></defs><g id="Facebook"><path class="cls-1" d="M2.88,24.47V10.53a7.67,7.67,0,0,1,7.65-7.65H24.47a7.67,7.67,0,0,1,7.65,7.65V24.47a7.67,7.67,0,0,1-7.65,7.65H10.53A7.67,7.67,0,0,1,2.88,24.47Z"/><path class="cls-1" d="M23.19,22.21,23.84,18H19.78V15.24A2.12,2.12,0,0,1,22.17,13H24V9.36a22.08,22.08,0,0,0-3.27-.29c-3.34,0-5.52,2-5.52,5.69V18H11.5v4.23h3.72v9.91h4.56V22.21Z"/></g></svg>